PathFileType	4	(X/Y/Z)	/Users/itak/Documents/Research/Walk-IL/dataset/trc/00104_00007.trc
DataRate	CameraRate	NumFrames	NumMarkers	Units	OrigDataRate	OrigDataStartFrame	OrigNumFrames
100.000000	100.000000	4	53	mm	100.000000	151	604
Frame#	Time	RPSI			LPSI			L3			STRN			T10			C7			CLAV			RBAK			LBAK			LSHO			LUPA			LAEL			LAOL			LWTS			LWPS			LFRA			LIFD			LHPS			LHTS			RSHO			RUPA			RAEL			RAOL			RWTS			RWPS			RFRA			RIFD			RHTS			RHPS			RBHD			LFHD			RFHD			LBHD			LHIP			RHIP			RASI			LASI			LKNE			LTHI			LANK			LTIP			LTOE			LMT1			LMT5			LHEE			RKNE			RTHI			RANK			RTIP			RTOE			RMT1			RMT5			RHEE			
		X1	Y1	Z1	X2	Y2	Z2	X3	Y3	Z3	X4	Y4	Z4	X5	Y5	Z5	X6	Y6	Z6	X7	Y7	Z7	X8	Y8	Z8	X9	Y9	Z9	X10	Y10	Z10	X11	Y11	Z11	X12	Y12	Z12	X13	Y13	Z13	X14	Y14	Z14	X15	Y15	Z15	X16	Y16	Z16	X17	Y17	Z17	X18	Y18	Z18	X19	Y19	Z19	X20	Y20	Z20	X21	Y21	Z21	X22	Y22	Z22	X23	Y23	Z23	X24	Y24	Z24	X25	Y25	Z25	X26	Y26	Z26	X27	Y27	Z27	X28	Y28	Z28	X29	Y29	Z29	X30	Y30	Z30	X31	Y31	Z31	X32	Y32	Z32	X33	Y33	Z33	X34	Y34	Z34	X35	Y35	Z35	X36	Y36	Z36	X37	Y37	Z37	X38	Y38	Z38	X39	Y39	Z39	X40	Y40	Z40	X41	Y41	Z41	X42	Y42	Z42	X43	Y43	Z43	X44	Y44	Z44	X45	Y45	Z45	X46	Y46	Z46	X47	Y47	Z47	X48	Y48	Z48	X49	Y49	Z49	X50	Y50	Z50	X51	Y51	Z51	X52	Y52	Z52	X53	Y53	Z53	

152	1.51	-1915.819458007812	1123.718139648438	-255.8267059326172	-1917.598510742188	1126.009887695312	-390.9207763671875	-1923.340454101562	1158.775756835938	-326.8888244628906	-1705.8408203125	1358.546875	-328.1598815917969	-1961.0361328125	1308.515258789062	-328.0081787109375	-1923.817626953125	1600.391235351562	-342.865478515625	-1739.327880859375	1494.695922851562	-331.9945983886719	-1980.150634765625	1416.649536132812	-255.3554077148438	-1929.689819335938	1581.472045898438	-445.4273681640625	-1841.355346679688	1567.613159179688	-511.9769592285156	-1857.437866210938	1435.896606445312	-583.0416259765625	-1836.343994140625	1215.157592773438	-602.471435546875	-1907.621948242188	1202.76025390625	-552.7199096679688	-1738.9013671875	959.1709594726562	-544.0241088867188	-1815.875122070312	932.4258422851562	-580.6122436523438	-1817.855346679688	1099.251098632812	-602.9694213867188	-1731.975341796875	765.0899658203125	-517.876708984375	-1785.552856445312	857.7936401367188	-576.7652587890625	-1720.849853515625	869.5138549804688	-552.049560546875	-1870.7451171875	1582.189453125	-160.3701782226562	-1888.575927734375	1509.503784179688	-96.46269989013672	-1898.1513671875	1213.7646484375	-75.37021636962891	-1905.023071289062	1213.278564453125	-172.5113830566406	-1748.444946289062	973.8273315429688	-92.61244201660156	-1823.5517578125	954.9017944335938	-59.95679092407227	-1873.67041015625	1140.459350585938	-60.62675476074219	-1722.651977539062	779.317138671875	-116.0598220825195	-1717.96435546875	864.4691162109375	-90.83707427978516	-1784.814453125	855.1919555664062	-59.71298599243164	-1884.773803710938	1771.154174804688	-261.7467651367188	-1718.502197265625	1839.408447265625	-390.7010192871094	-1720.752075195312	1842.029174804688	-261.1014709472656	-1889.017700195312	1772.454223632812	-397.3357238769531	-1829.591674804688	1036.493896484375	-499.3684692382812	-1786.576416015625	1027.574584960938	-140.7782592773438	-1706.98193359375	1101.111572265625	-195.8813781738281	-1719.199829101562	1100.14697265625	-462.6762390136719	-1808.312866210938	534.2959594726562	-478.4101867675781	-1827.70654296875	681.2820434570312	-502.3544921875	-1943.348388671875	34.6039924621582	-471.0868835449219	-1923.14697265625	291.8810729980469	-501.3777160644531	-1715.449462890625	44.17642974853516	-416.8348388671875	-1793.92431640625	45.79913330078125	-381.6798706054688	-1817.56640625	31.40164375305176	-497.8591003417969	-2011.501098632812	37.50770568847656	-406.7830200195312	-1782.506469726562	533.7451782226562	-184.5507202148438	-1762.287231445312	812.36572265625	-149.7065582275391	-1924.263427734375	31.55468559265137	-184.1166076660156	-1814.3095703125	399.3941955566406	-171.4377136230469	-1697.049438476562	48.51001739501953	-249.7796173095703	-1759.423583984375	34.79603958129883	-288.4753112792969	-1789.877319335938	38.53225708007812	-171.9546356201172	-1984.473022460938	32.78196716308594	-228.2126922607422	
153	1.52	-1915.345458984375	1123.64501953125	-254.9786987304688	-1916.939208984375	1126.061279296875	-390.08251953125	-1922.677490234375	1158.87109375	-326.0845947265625	-1704.984130859375	1358.326904296875	-327.2232971191406	-1960.188720703125	1308.79052734375	-327.4468994140625	-1922.521118164062	1600.500244140625	-342.3063659667969	-1738.159790039062	1494.560791015625	-331.1796264648438	-1979.221313476562	1416.817260742188	-254.8349304199219	-1928.258666992188	1581.5791015625	-444.8738403320312	-1839.867919921875	1567.601440429688	-511.2911071777344	-1856.0576171875	1435.953857421875	-582.4725952148438	-1835.341918945312	1215.229614257812	-602.1016845703125	-1906.68701171875	1202.887084960938	-552.4278564453125	-1738.2021484375	959.1455078125	-543.75732421875	-1815.18603515625	932.455810546875	-580.4354248046875	-1816.989990234375	1099.308349609375	-602.6810913085938	-1731.298095703125	765.0160522460938	-517.6581420898438	-1784.940063476562	857.7998046875	-576.614990234375	-1720.21533203125	869.468505859375	-551.8170776367188	-1869.741821289062	1582.252685546875	-159.7311553955078	-1887.734008789062	1509.546508789062	-95.84064483642578	-1897.615600585938	1213.790893554688	-74.96984100341797	-1904.304321289062	1213.359497070312	-172.1152954101562	-1748.112548828125	973.6893920898438	-92.09061431884766	-1823.236328125	954.807861328125	-59.56375885009766	-1873.217529296875	1140.423217773438	-60.18998336791992	-1722.405639648438	779.1619262695312	-115.6353149414062	-1717.790771484375	864.3265991210938	-90.37289428710938	-1784.6533203125	855.112548828125	-59.33171463012695	-1883.469848632812	1771.11572265625	-261.1993103027344	-1717.278930664062	1839.317626953125	-390.2987976074219	-1719.470336914062	1842.112060546875	-260.6949157714844	-1887.758056640625	1772.273071289062	-396.7998962402344	-1828.9287109375	1036.502685546875	-498.4669799804688	-1786.307983398438	1027.359252929688	-139.7715759277344	-1706.602661132812	1100.8994140625	-194.8907165527344	-1718.437866210938	1099.876708984375	-461.8276062011719	-1807.104125976562	534.19677734375	-478.3503723144531	-1826.919799804688	681.2765502929688	-501.9468078613281	-1943.5205078125	34.30604934692383	-471.2777709960938	-1922.931640625	292.0453491210938	-501.2171325683594	-1715.894653320312	45.26810455322266	-417.4857788085938	-1794.132446289062	46.43339157104492	-382.0660705566406	-1817.625	31.17570114135742	-498.0798645019531	-2011.61572265625	37.43207931518555	-406.9077453613281	-1781.0166015625	533.46630859375	-184.6051635742188	-1761.66015625	812.0211181640625	-149.1506805419922	-1924.249877929688	31.65274429321289	-184.1961212158203	-1812.919311523438	398.9980773925781	-171.5326690673828	-1697.048828125	49.3388671875	-249.8306884765625	-1759.330200195312	35.31816482543945	-288.4862060546875	-1789.908813476562	38.90826797485352	-172.1513366699219	-1984.4296875	32.73706436157227	-228.3183441162109	
154	1.53	-1914.838256835938	1123.58154296875	-254.0595703125	-1916.243530273438	1126.10498046875	-389.1747131347656	-1921.975708007812	1158.969482421875	-325.2041625976562	-1704.042358398438	1358.095458984375	-326.219970703125	-1959.244995117188	1309.027709960938	-326.7650451660156	-1921.125366210938	1600.623168945312	-341.689208984375	-1736.9033203125	1494.4111328125	-330.305908203125	-1978.219360351562	1417.01171875	-254.2489013671875	-1926.733032226562	1581.688232421875	-444.2537841796875	-1838.281127929688	1567.582885742188	-510.5362243652344	-1854.599975585938	1436.006103515625	-581.8348388671875	-1834.29248046875	1215.30517578125	-601.6886596679688	-1905.704223632812	1203.02001953125	-552.093017578125	-1737.487548828125	959.1067504882812	-543.4627075195312	-1814.492431640625	932.4899291992188	-580.24267578125	-1816.090209960938	1099.36669921875	-602.36328125	-1730.647216796875	764.9352416992188	-517.4457397460938	-1784.307250976562	857.8048706054688	-576.4532470703125	-1719.558349609375	869.4169311523438	-551.5607299804688	-1868.633666992188	1582.316650390625	-159.0262756347656	-1886.80078125	1509.59423828125	-95.16440582275391	-1897.001098632812	1213.821899414062	-74.49536895751953	-1903.523071289062	1213.448364257812	-171.6472778320312	-1747.761474609375	973.5233154296875	-91.52263641357422	-1822.914306640625	954.7154541015625	-59.11543273925781	-1872.689453125	1140.4013671875	-59.68460083007812	-1722.181030273438	778.9724731445312	-115.141487121582	-1717.55712890625	864.1705932617188	-89.83061981201172	-1784.46923828125	855.0084838867188	-58.86009979248047	-1882.076904296875	1771.074462890625	-260.5973205566406	-1715.978393554688	1839.2294921875	-389.8558044433594	-1718.11474609375	1842.197387695312	-260.2388000488281	-1886.4189453125	1772.0703125	-396.1936645507812	-1828.207885742188	1036.506469726562	-497.5060119628906	-1786.020629882812	1027.133666992188	-138.6744689941406	-1706.18359375	1100.699096679688	-193.7949523925781	-1717.645385742188	1099.610229492188	-460.8495178222656	-1805.611572265625	534.0551147460938	-478.21484375	-1825.9130859375	681.2333984375	-501.4657592773438	-1943.67138671875	34.03675079345703	-471.4565124511719	-1922.536254882812	292.1928405761719	-501.0190734863281	-1716.317504882812	46.28586196899414	-418.0921936035156	-1794.314697265625	47.00371551513672	-382.4151000976562	-1817.677124023438	30.96529579162598	-498.2929992675781	-2011.707641601562	37.37382507324219	-407.0101318359375	-1779.76123046875	533.2019653320312	-184.5142822265625	-1761.127685546875	811.6787719726562	-148.4810485839844	-1924.248291015625	31.67557144165039	-184.2164154052734	-1811.727294921875	398.6154479980469	-171.4897003173828	-1697.072509765625	50.10791397094727	-249.879638671875	-1759.283081054688	35.85075378417969	-288.5174255371094	-1789.951171875	39.25818252563477	-172.3036346435547	-1984.39697265625	32.66259384155273	-228.3603363037109	
155	1.54	-1914.30078125	1123.530883789062	-253.0716400146484	-1915.521728515625	1126.137939453125	-388.2011413574219	-1921.243530273438	1159.069946289062	-324.2481994628906	-1703.010864257812	1357.854370117188	-325.1554260253906	-1958.216918945312	1309.237426757812	-325.9633178710938	-1919.623657226562	1600.759887695312	-341.0069274902344	-1735.569091796875	1494.244995117188	-329.3722534179688	-1977.13916015625	1417.238891601562	-253.5874786376953	-1925.11376953125	1581.802612304688	-443.5599975585938	-1836.596435546875	1567.55908203125	-509.7105712890625	-1853.066528320312	1436.056396484375	-581.1264038085938	-1833.195556640625	1215.388671875	-601.2249145507812	-1904.675048828125	1203.162841796875	-551.7086791992188	-1736.76123046875	959.0479125976562	-543.1412353515625	-1813.795043945312	932.5315551757812	-580.0305786132812	-1815.153930664062	1099.428833007812	-602.009765625	-1730.046752929688	764.8551635742188	-517.2525024414062	-1783.65478515625	857.8099365234375	-576.2797241210938	-1718.891845703125	869.3552856445312	-551.2872924804688	-1867.405029296875	1582.383544921875	-158.2527465820312	-1885.755737304688	1509.65234375	-94.43182373046875	-1896.300048828125	1213.862548828125	-73.93781280517578	-1902.677978515625	1213.5517578125	-171.0964660644531	-1747.385009765625	973.3338012695312	-90.91066741943359	-1822.578125	954.6323852539062	-58.60674285888672	-1872.081909179688	1140.3994140625	-59.10597991943359	-1721.976196289062	778.7606201171875	-114.5849304199219	-1717.261352539062	864.0009155273438	-89.21242523193359	-1784.254638671875	854.8788452148438	-58.30557250976562	-1880.591064453125	1771.03125	-259.9383239746094	-1714.597534179688	1839.142822265625	-389.3712463378906	-1716.687622070312	1842.28662109375	-259.7300109863281	-1884.99755859375	1771.843872070312	-395.5162048339844	-1827.430053710938	1036.500610351562	-496.4928588867188	-1785.702514648438	1026.904907226562	-137.4849243164062	-1705.73193359375	1100.507080078125	-192.5998840332031	-1716.839965820312	1099.340454101562	-459.7427978515625	-1803.795043945312	533.8579711914062	-477.9887084960938	-1824.64501953125	681.1375732421875	-500.8973693847656	-1943.790649414062	33.81626129150391	-471.6098022460938	-1921.926147460938	292.3124389648438	-500.7748413085938	-1716.706665039062	47.17740249633789	-418.6307678222656	-1794.462524414062	47.47956466674805	-382.7178649902344	-1817.721435546875	30.77817344665527	-498.4932250976562	-2011.77001953125	37.34790802001953	-407.0794982910156	-1778.769897460938	532.9547119140625	-184.2752838134766	-1760.678588867188	811.3511352539062	-147.6995544433594	-1924.265747070312	31.61447906494141	-184.1686859130859	-1810.770141601562	398.2644958496094	-171.3028869628906	-1697.13330078125	50.82615280151367	-249.9286956787109	-1759.31982421875	36.39642333984375	-288.5697631835938	-1790.015991210938	39.56413650512695	-172.4082183837891	-1984.390502929688	32.55045700073242	-228.3286285400391	
